
        <svg xmlns="http://www.w3.org/2000/svg" xmlns:xlink="http://www.w3.org/1999/xlink" version="1.1" width="3161.955880984145" 
        height="868.7301155976635" viewBox="0 0 3161.955880984145 868.7301155976635">
			<rect fill="#111111" width="3161.955880984145" height="868.7301155976635"/>
			<g transform="scale(8.097794049207284) translate(10, 10)">
				<defs id="SvgjsDefs1938"></defs><g id="SvgjsG1939" featureKey="symbolFeature-0" transform="matrix(4.444437030938866,0,0,4.444437030938866,-7.071099142443373,-9.693317139046394)" fill="#41a4c3"><g xmlns="http://www.w3.org/2000/svg"><path d="M3.991,10.373c-0.221,0-0.4,0.179-0.4,0.4v3.824c0,0.221,0.179,0.4,0.4,0.4s0.4-0.18,0.4-0.4v-3.824   C4.391,10.552,4.211,10.373,3.991,10.373z"></path><path d="M1.991,11.67c-0.221,0-0.4,0.179-0.4,0.4V13.3c0,0.221,0.179,0.4,0.4,0.4s0.4-0.18,0.4-0.4V12.07   C2.391,11.85,2.211,11.67,1.991,11.67z"></path><path d="M20.01,10.373c-0.221,0-0.4,0.179-0.4,0.4v3.824c0,0.221,0.18,0.4,0.4,0.4s0.4-0.18,0.4-0.4v-3.824   C20.41,10.552,20.23,10.373,20.01,10.373z"></path><path d="M22.01,11.67c-0.221,0-0.4,0.179-0.4,0.4V13.3c0,0.221,0.18,0.4,0.4,0.4s0.4-0.18,0.4-0.4V12.07   C22.41,11.85,22.23,11.67,22.01,11.67z"></path><path d="M5.991,5.178c-0.221,0-0.4,0.179-0.4,0.4v14.213c0,0.221,0.179,0.4,0.4,0.4s0.4-0.18,0.4-0.4V5.578   C6.391,5.357,6.211,5.178,5.991,5.178z"></path><path d="M7.991,8.873c-0.221,0-0.4,0.179-0.4,0.4v6.824c0,0.221,0.179,0.4,0.4,0.4s0.4-0.18,0.4-0.4V9.272   C8.391,9.052,8.211,8.873,7.991,8.873z"></path><path d="M11.991,6.063c-0.221,0-0.4,0.179-0.4,0.4v12.445c0,0.221,0.179,0.4,0.4,0.4s0.4-0.18,0.4-0.4V6.462   C12.391,6.242,12.211,6.063,11.991,6.063z"></path><path d="M9.991,2.181c-0.221,0-0.4,0.179-0.4,0.4v18.838c0,0.221,0.179,0.4,0.4,0.4s0.4-0.18,0.4-0.4V2.581   C10.391,2.36,10.211,2.181,9.991,2.181z"></path><path d="M17.99,5.178c-0.221,0-0.4,0.179-0.4,0.4v14.213c0,0.221,0.18,0.4,0.4,0.4s0.4-0.18,0.4-0.4V5.578   C18.391,5.357,18.211,5.178,17.99,5.178z"></path><path d="M15.99,8.873c-0.221,0-0.4,0.179-0.4,0.4v6.824c0,0.221,0.18,0.4,0.4,0.4s0.4-0.18,0.4-0.4V9.272   C16.391,9.052,16.211,8.873,15.99,8.873z"></path><path d="M13.99,2.181c-0.221,0-0.4,0.179-0.4,0.4v18.838c0,0.221,0.18,0.4,0.4,0.4s0.4-0.18,0.4-0.4V2.581   C14.391,2.36,14.211,2.181,13.99,2.181z"></path></g></g><g id="SvgjsG1940" featureKey="nameFeature-0" transform="matrix(0.8583520192771271,0,0,0.8583520192771271,111.45496620158352,22.279142796530238)" fill="#ffffff"><path d="M29.88 19.48 l-10.2 12.2 l-10.12 -12.2 l0 20.52 l-4.28 0 l0 -25.64 l-3.48 -4.2 l5.64 0 l12.2 14.64 l12.36 -14.64 l5.64 0 l-3.48 4.2 l0 25.64 l-4.28 0 l0 -20.52 z M53.879999999999995 40.64 l-0.08 0 q-4.56 0 -7.12 -2.12 q-2.84 -2.24 -2.84 -6.64 l0 -12.6 l4.12 0 l0 12.6 q0 2.52 1.64 3.6 q1.4 1 4.24 1 t4.28 -1 q1.6 -1.08 1.6 -3.6 l0 -12.6 l4.12 0 l0 12.6 q0 4.4 -2.8 6.64 q-2.6 2.12 -7.16 2.12 z M88.91999999999999 21.2 l-2.76 3.2 q-2.2 -1.8 -6.16 -1.8 q-1.56 0 -2.88 0.68 t-1.32 1.56 q0 0.72 0.28 1.08 q0.36 0.52 1.28 0.72 q1.04 0.28 2.96 0.28 q4.16 0 6.56 0.92 q2.12 0.76 2.96 2.28 q0.68 1.24 0.68 3.16 q0 3.6 -3 5.52 q-2.84 1.84 -7.48 1.84 q-2.68 0 -5.18 -1.18 t-4.22 -3.22 l2.96 -3 l0.36 0.4 q0.84 0.88 1.36 1.36 q0.92 0.76 1.92 1.16 q1.24 0.48 2.8 0.48 q2.88 0 4.64 -0.88 t1.76 -2.48 q0 -1.36 -1.56 -1.84 q-1.4 -0.44 -4.84 -0.44 q-4 0 -6.12 -1.4 q-2.44 -1.52 -2.44 -4.76 q0 -1.84 1.2 -3.28 q1.12 -1.4 3.08 -2.18 t4.28 -0.78 q2.48 0 4.44 0.52 q2.32 0.6 4.44 2.08 z M101.79999999999998 40 l-4.08 0 l0 -20.72 l4.08 0 l0 20.72 z M127.72 34.24 l2.4 3.44 q-1.68 1.44 -3.9 2.2 t-4.62 0.76 q-3.2 0 -5.96 -1.32 q-2.84 -1.36 -4.48 -3.76 q-1.76 -2.64 -1.76 -6 t1.8 -5.96 q1.64 -2.4 4.52 -3.72 q2.76 -1.28 5.92 -1.28 q2.32 0 4.48 0.66 t3.84 1.94 l-2.76 3.2 q-1.16 -0.8 -2.62 -1.22 t-2.94 -0.42 q-2.08 0 -3.84 0.76 q-1.84 0.76 -2.88 2.24 q-1.16 1.64 -1.16 3.88 t1.16 3.84 q1.08 1.48 2.96 2.28 q1.72 0.72 3.8 0.72 q1.64 0 3.24 -0.58 t2.8 -1.66 z M173.23999999999998 19.48 l-10.2 12.2 l-10.12 -12.2 l0 20.52 l-4.28 0 l0 -25.64 l-3.48 -4.2 l5.64 0 l12.2 14.64 l12.36 -14.64 l5.64 0 l-3.48 4.2 l0 25.64 l-4.28 0 l0 -20.52 z M205.76 29.48 q0 -2.2 -1.2 -3.8 q-1.04 -1.4 -2.92 -2.16 q-1.72 -0.68 -3.8 -0.68 t-3.84 0.72 q-1.88 0.76 -2.92 2.24 q-1.16 1.6 -1.16 3.84 t1.2 3.84 q1.04 1.44 2.92 2.24 q1.76 0.72 3.8 0.72 t3.84 -0.8 q1.84 -0.84 2.92 -2.36 q1.16 -1.64 1.16 -3.8 z M210.07999999999998 29.439999999999998 q0 3.4 -1.8 6.04 q-1.64 2.44 -4.52 3.84 q-2.76 1.32 -5.96 1.32 t-5.96 -1.32 q-2.84 -1.36 -4.48 -3.76 q-1.76 -2.64 -1.76 -6 t1.8 -5.96 q1.64 -2.4 4.52 -3.72 q2.76 -1.28 5.96 -1.28 t5.92 1.2 q2.84 1.28 4.48 3.64 q1.8 2.56 1.8 6 z M233.56 21.2 l-2.76 3.2 q-2.2 -1.8 -6.16 -1.8 q-1.56 0 -2.88 0.68 t-1.32 1.56 q0 0.72 0.28 1.08 q0.36 0.52 1.28 0.72 q1.04 0.28 2.96 0.28 q4.16 0 6.56 0.92 q2.12 0.76 2.96 2.28 q0.68 1.24 0.68 3.16 q0 3.6 -3 5.52 q-2.84 1.84 -7.48 1.84 q-2.68 0 -5.18 -1.18 t-4.22 -3.22 l2.96 -3 l0.36 0.4 q0.84 0.88 1.36 1.36 q0.92 0.76 1.92 1.16 q1.24 0.48 2.8 0.48 q2.88 0 4.64 -0.88 t1.76 -2.48 q0 -1.36 -1.56 -1.84 q-1.4 -0.44 -4.84 -0.44 q-4 0 -6.12 -1.4 q-2.44 -1.52 -2.44 -4.76 q0 -1.84 1.2 -3.28 q1.12 -1.4 3.08 -2.18 t4.28 -0.78 q2.48 0 4.44 0.52 q2.32 0.6 4.44 2.08 z M254.28 33.12 l0.56 0 l-4.04 -7.68 l-4.92 9.48 q1.36 -0.72 3.08 -1.16 q2.48 -0.64 5.32 -0.64 z M248.68 21.4 l-1.36 -2.6 l4.44 0 l11.2 21.2 l-4.52 0 l-1.64 -3.12 l-2.48 0 q-2.36 0 -5 0.56 q-2.24 0.44 -4.08 1.2 q-1.68 0.64 -2.04 1.12 l-0.12 0.24 l-4.32 0 z M273.44 40 l-4.08 0 l0 -20.72 l4.08 0 l0 20.72 z M299.36 34.24 l2.4 3.44 q-1.68 1.44 -3.9 2.2 t-4.62 0.76 q-3.2 0 -5.96 -1.32 q-2.84 -1.36 -4.48 -3.76 q-1.76 -2.64 -1.76 -6 t1.8 -5.96 q1.64 -2.4 4.52 -3.72 q2.76 -1.28 5.92 -1.28 q2.32 0 4.48 0.66 t3.84 1.94 l-2.76 3.2 q-1.16 -0.8 -2.62 -1.22 t-2.94 -0.42 q-2.08 0 -3.84 0.76 q-1.84 0.76 -2.88 2.24 q-1.16 1.64 -1.16 3.88 t1.16 3.84 q1.08 1.48 2.96 2.28 q1.72 0.72 3.8 0.72 q1.64 0 3.24 -0.58 t2.8 -1.66 z"></path></g>
			</g>
		</svg>
	