<svg xmlns="http://www.w3.org/2000/svg" version="1.1" xmlns:xlink="http://www.w3.org/1999/xlink" xmlns:svgjs="http://svgjs.dev/svgjs" width="1000" height="750" viewBox="0 0 1000 750"><rect width="1000" height="750" fill="#010536"></rect><g transform="matrix(0.4342007434944238,0,0,0.4342007434944238,283.06005335776814,83.18028466019592)"><svg viewBox="0 0 243 327" data-background-color="#010536" preserveAspectRatio="xMidYMid meet" height="1345" width="1000" xmlns="http://www.w3.org/2000/svg" xmlns:xlink="http://www.w3.org/1999/xlink"><g id="tight-bounds" transform="matrix(1,0,0,1,-0.08978174518176729,-0.10094706144531074)"><svg viewBox="0 0 243.17956349036356 327.2" height="327.2" width="243.17956349036356"><g><svg viewBox="0 0 395.52 532.1752459068307" height="327.2" width="243.17956349036356"><g transform="matrix(1,0,0,1,0,216.9690668983053)"><svg viewBox="0 0 395.52 315.20617900852545" height="315.20617900852545" width="395.52"><g><svg viewBox="0 0 395.52 315.20617900852545" height="315.20617900852545" width="395.52"><g><svg viewBox="0 0 395.52 315.20617900852545" height="315.20617900852545" width="395.52"><g transform="matrix(1,0,0,1,0,0)"><svg width="395.52" viewBox="23.164690017700195 -7.164229393005371 36.11553192138672 28.78194808959961" height="315.20617900852545" data-palette-color="#fbfbf8"><path d="M23.165 21.349l0.329-22.867 4.46 0.064 3.823 15.057c0.251 1.07 0.48 2.787 0.686 5.15v0l0.14 0.002c0.255-2.397 0.523-4.106 0.804-5.129v0l4.286-14.94 4.429 0.064-0.329 22.868-2.93-0.042 0.239-16.599c0.007-0.513 0.101-1.689 0.281-3.526v0l-0.13-0.002c-0.386 1.835-0.66 3.007-0.821 3.519v0l-4.808 16.532-2.63-0.038-4.331-16.664c-0.101-0.401-0.317-1.581-0.649-3.54v0l-0.13-0.002c0.105 1.935 0.155 3.113 0.15 3.533v0l-0.24 16.598zM41.842 20.799l-8.049-21.406 4.175-1.57 9.061 12.618c0.625 0.905 1.465 2.419 2.52 4.544v0l0.131-0.049c-0.639-2.324-1.014-4.013-1.126-5.068v0l-1.469-15.473 4.146-1.559 8.049 21.407-2.742 1.031-5.843-15.538c-0.181-0.48-0.523-1.609-1.027-3.385v0l-0.121 0.045c0.311 1.849 0.484 3.041 0.521 3.576v0l1.565 17.146-2.462 0.926-10.12-13.93c-0.241-0.337-0.873-1.356-1.897-3.058v0l-0.122 0.046c0.805 1.763 1.282 2.841 1.43 3.234v0l5.842 15.538z" opacity="1" transform="matrix(1,0,0,1,0,0)" fill="#fbfbf8" class="undefined-text-0" data-fill-palette-color="primary" id="text-0"></path></svg></g></svg></g></svg></g></svg></g><g transform="matrix(1,0,0,1,75.54432000000001,0)"><svg viewBox="0 0 244.43135999999996 186.9180988235294" height="186.9180988235294" width="244.43135999999996"><g><svg xmlns="http://www.w3.org/2000/svg" xmlns:xlink="http://www.w3.org/1999/xlink" version="1.1" x="0" y="0" viewBox="7.5 17.5 85 65" enable-background="new 0 0 100 100" xml:space="preserve" height="186.9180988235294" width="244.43135999999996" class="icon-icon-0" data-fill-palette-color="accent" id="icon-0"><path d="M10 17.5c-1.381 0-2.5 1.119-2.5 2.5v40 20c0 1.381 1.119 2.5 2.5 2.5s2.5-1.119 2.5-2.5V60 20C12.5 18.619 11.381 17.5 10 17.5z" fill="#ffff00" data-fill-palette-color="accent"></path><path d="M90 17.5c-1.381 0-2.5 1.119-2.5 2.5v40 20c0 1.381 1.119 2.5 2.5 2.5s2.5-1.119 2.5-2.5V60 20C92.5 18.619 91.381 17.5 90 17.5z" fill="#ffff00" data-fill-palette-color="accent"></path><path d="M50 37.5c-1.381 0-2.5 1.119-2.5 2.5v40c0 1.381 1.119 2.5 2.5 2.5s2.5-1.119 2.5-2.5V40C52.5 38.619 51.381 37.5 50 37.5z" fill="#ffff00" data-fill-palette-color="accent"></path><path d="M18 57.5c-1.381 0-2.5 1.119-2.5 2.5v20c0 1.381 1.119 2.5 2.5 2.5s2.5-1.119 2.5-2.5V60C20.5 58.619 19.381 57.5 18 57.5z" fill="#ffff00" data-fill-palette-color="accent"></path><path d="M26 57.5c-1.381 0-2.5 1.119-2.5 2.5v20c0 1.381 1.119 2.5 2.5 2.5s2.5-1.119 2.5-2.5V60C28.5 58.619 27.381 57.5 26 57.5z" fill="#ffff00" data-fill-palette-color="accent"></path><path d="M34 57.5c-1.381 0-2.5 1.119-2.5 2.5v20c0 1.381 1.119 2.5 2.5 2.5s2.5-1.119 2.5-2.5V60C36.5 58.619 35.381 57.5 34 57.5z" fill="#ffff00" data-fill-palette-color="accent"></path><path d="M42 57.5c-1.381 0-2.5 1.119-2.5 2.5v20c0 1.381 1.119 2.5 2.5 2.5s2.5-1.119 2.5-2.5V60C44.5 58.619 43.381 57.5 42 57.5z" fill="#ffff00" data-fill-palette-color="accent"></path><path d="M58 57.5c-1.381 0-2.5 1.119-2.5 2.5v20c0 1.381 1.119 2.5 2.5 2.5s2.5-1.119 2.5-2.5V60C60.5 58.619 59.381 57.5 58 57.5z" fill="#ffff00" data-fill-palette-color="accent"></path><path d="M66 57.5c-1.381 0-2.5 1.119-2.5 2.5v20c0 1.381 1.119 2.5 2.5 2.5s2.5-1.119 2.5-2.5V60C68.5 58.619 67.381 57.5 66 57.5z" fill="#ffff00" data-fill-palette-color="accent"></path><path d="M74 57.5c-1.381 0-2.5 1.119-2.5 2.5v20c0 1.381 1.119 2.5 2.5 2.5s2.5-1.119 2.5-2.5V60C76.5 58.619 75.381 57.5 74 57.5z" fill="#ffff00" data-fill-palette-color="accent"></path><path d="M82 57.5c-1.381 0-2.5 1.119-2.5 2.5v20c0 1.381 1.119 2.5 2.5 2.5s2.5-1.119 2.5-2.5V60C84.5 58.619 83.381 57.5 82 57.5z" fill="#ffff00" data-fill-palette-color="accent"></path></svg></g></svg></g><g></g></svg></g><defs></defs></svg><rect width="243.17956349036356" height="327.2" fill="none" stroke="none" visibility="hidden"></rect></g></svg></g></svg>